# MagicaVoxel @ Ephtracy

# group
o 

# material
mtllib BookShelf01.mtl
usemtl palette

# normals
vn -1 0 0
vn 1 0 0
vn 0 0 1
vn 0 0 -1
vn 0 -1 0
vn 0 1 0

# texcoords
vt 0.845703 0.5
vt 0.849609 0.5
vt 0.853516 0.5
vt 0.857422 0.5
vt 0.876953 0.5
vt 0.908203 0.5

# verts
v 0 2 0
v 0 2 -1
v 0 3 0
v 0 3 -1
v 0.3 2.1 -0.2
v 0.3 2.1 -0.8
v 0.3 2.2 -0.2
v 0.3 2.2 -0.3
v 0.3 2.5 -0.2
v 0.3 2.5 -0.3
v 0.3 2.6 -0.2
v 0.3 2.6 -0.8
v 0.5 2.1 -0.2
v 0.5 2.1 -0.8
v 0.5 2.2 -0.2
v 0.5 2.2 -0.3
v 0.5 2.5 -0.2
v 0.5 2.5 -0.3
v 0.5 2.6 -0.2
v 0.5 2.6 -0.8
v 0.7 2.1 -0.2
v 0.7 2.1 -0.8
v 0.7 2.2 -0.2
v 0.7 2.2 -0.3
v 0.7 2.5 -0.2
v 0.7 2.5 -0.3
v 0.7 2.6 -0.2
v 0.7 2.6 -0.8
v 0.9 2.1 0
v 0.9 2.1 -1
v 0.9 2.9 0
v 0.9 2.9 -1
v 0.1 2.1 0
v 0.1 2.1 -0.2
v 0.1 2.1 -0.8
v 0.1 2.1 -1
v 0.1 2.2 -0.2
v 0.1 2.5 -0.2
v 0.1 2.6 -0.2
v 0.1 2.6 -0.8
v 0.1 2.9 0
v 0.1 2.9 -1
v 0.2 2.1 -0.2
v 0.2 2.1 -0.8
v 0.2 2.2 -0.2
v 0.2 2.2 -0.3
v 0.2 2.5 -0.2
v 0.2 2.5 -0.3
v 0.2 2.6 -0.2
v 0.2 2.6 -0.8
v 0.4 2.1 -0.2
v 0.4 2.1 -0.8
v 0.4 2.2 -0.2
v 0.4 2.2 -0.3
v 0.4 2.5 -0.2
v 0.4 2.5 -0.3
v 0.4 2.6 -0.2
v 0.4 2.6 -0.8
v 0.6 2.1 -0.2
v 0.6 2.1 -0.8
v 0.6 2.2 -0.2
v 0.6 2.2 -0.3
v 0.6 2.5 -0.2
v 0.6 2.5 -0.3
v 0.6 2.6 -0.2
v 0.6 2.6 -0.8
v 0.8 2.1 -0.2
v 0.8 2.1 -0.8
v 0.8 2.2 -0.2
v 0.8 2.2 -0.3
v 0.8 2.5 -0.2
v 0.8 2.5 -0.3
v 0.8 2.6 -0.2
v 0.8 2.6 -0.8
v 1 2 0
v 1 2 -1
v 1 3 0
v 1 3 -1
v 0 2 0
v 0 3 0
v 0.1 2.1 0
v 0.1 2.9 0
v 0.9 2.1 0
v 0.9 2.9 0
v 1 2 0
v 1 3 0
v 0.1 2.1 -0.2
v 0.1 2.2 -0.2
v 0.1 2.5 -0.2
v 0.1 2.6 -0.2
v 0.2 2.1 -0.2
v 0.2 2.2 -0.2
v 0.2 2.5 -0.2
v 0.2 2.6 -0.2
v 0.3 2.1 -0.2
v 0.3 2.2 -0.2
v 0.3 2.5 -0.2
v 0.3 2.6 -0.2
v 0.4 2.1 -0.2
v 0.4 2.2 -0.2
v 0.4 2.5 -0.2
v 0.4 2.6 -0.2
v 0.5 2.1 -0.2
v 0.5 2.2 -0.2
v 0.5 2.5 -0.2
v 0.5 2.6 -0.2
v 0.6 2.1 -0.2
v 0.6 2.2 -0.2
v 0.6 2.5 -0.2
v 0.6 2.6 -0.2
v 0.7 2.1 -0.2
v 0.7 2.2 -0.2
v 0.7 2.5 -0.2
v 0.7 2.6 -0.2
v 0.8 2.1 -0.2
v 0.8 2.2 -0.2
v 0.8 2.5 -0.2
v 0.8 2.6 -0.2
v 0.1 2.1 -0.8
v 0.1 2.6 -0.8
v 0.2 2.1 -0.8
v 0.2 2.6 -0.8
v 0.3 2.1 -0.8
v 0.3 2.6 -0.8
v 0.4 2.1 -0.8
v 0.4 2.6 -0.8
v 0.5 2.1 -0.8
v 0.5 2.6 -0.8
v 0.6 2.1 -0.8
v 0.6 2.6 -0.8
v 0.7 2.1 -0.8
v 0.7 2.6 -0.8
v 0.8 2.1 -0.8
v 0.8 2.6 -0.8
v 0 2 -1
v 0 3 -1
v 0.1 2.1 -1
v 0.1 2.9 -1
v 0.9 2.1 -1
v 0.9 2.9 -1
v 1 2 -1
v 1 3 -1
v 0 2 0
v 1 2 0
v 0 2 -1
v 1 2 -1
v 0.1 2.9 0
v 0.9 2.9 0
v 0.1 2.9 -1
v 0.9 2.9 -1
v 0.1 2.1 0
v 0.9 2.1 0
v 0.1 2.1 -0.2
v 0.2 2.1 -0.2
v 0.3 2.1 -0.2
v 0.4 2.1 -0.2
v 0.5 2.1 -0.2
v 0.6 2.1 -0.2
v 0.7 2.1 -0.2
v 0.8 2.1 -0.2
v 0.1 2.1 -0.8
v 0.2 2.1 -0.8
v 0.3 2.1 -0.8
v 0.4 2.1 -0.8
v 0.5 2.1 -0.8
v 0.6 2.1 -0.8
v 0.7 2.1 -0.8
v 0.8 2.1 -0.8
v 0.1 2.1 -1
v 0.9 2.1 -1
v 0.1 2.6 -0.2
v 0.2 2.6 -0.2
v 0.3 2.6 -0.2
v 0.4 2.6 -0.2
v 0.5 2.6 -0.2
v 0.6 2.6 -0.2
v 0.7 2.6 -0.2
v 0.8 2.6 -0.2
v 0.1 2.6 -0.8
v 0.2 2.6 -0.8
v 0.3 2.6 -0.8
v 0.4 2.6 -0.8
v 0.5 2.6 -0.8
v 0.6 2.6 -0.8
v 0.7 2.6 -0.8
v 0.8 2.6 -0.8
v 0 3 0
v 1 3 0
v 0 3 -1
v 1 3 -1

# faces
f 3/6/1 2/6/1 1/6/1
f 4/6/1 2/6/1 3/6/1
f 7/2/1 6/2/1 5/2/1
f 8/2/1 6/2/1 7/2/1
f 9/5/1 8/5/1 7/5/1
f 10/2/1 6/2/1 8/2/1
f 10/5/1 8/5/1 9/5/1
f 11/2/1 10/2/1 9/2/1
f 12/2/1 6/2/1 10/2/1
f 12/2/1 10/2/1 11/2/1
f 15/3/1 14/3/1 13/3/1
f 16/3/1 14/3/1 15/3/1
f 17/5/1 16/5/1 15/5/1
f 18/3/1 14/3/1 16/3/1
f 18/5/1 16/5/1 17/5/1
f 19/3/1 18/3/1 17/3/1
f 20/3/1 14/3/1 18/3/1
f 20/3/1 18/3/1 19/3/1
f 23/4/1 22/4/1 21/4/1
f 24/4/1 22/4/1 23/4/1
f 25/5/1 24/5/1 23/5/1
f 26/4/1 22/4/1 24/4/1
f 26/5/1 24/5/1 25/5/1
f 27/4/1 26/4/1 25/4/1
f 28/4/1 22/4/1 26/4/1
f 28/4/1 26/4/1 27/4/1
f 31/6/1 30/6/1 29/6/1
f 32/6/1 30/6/1 31/6/1
f 33/6/2 34/6/2 37/6/2
f 33/6/2 37/6/2 38/6/2
f 33/6/2 38/6/2 39/6/2
f 35/6/2 36/6/2 40/6/2
f 33/6/2 39/6/2 41/6/2
f 39/6/2 40/6/2 41/6/2
f 40/6/2 36/6/2 42/6/2
f 41/6/2 40/6/2 42/6/2
f 43/1/2 44/1/2 45/1/2
f 45/1/2 44/1/2 46/1/2
f 45/5/2 46/5/2 47/5/2
f 46/1/2 44/1/2 48/1/2
f 47/5/2 46/5/2 48/5/2
f 47/1/2 48/1/2 49/1/2
f 48/1/2 44/1/2 50/1/2
f 49/1/2 48/1/2 50/1/2
f 51/2/2 52/2/2 53/2/2
f 53/2/2 52/2/2 54/2/2
f 53/5/2 54/5/2 55/5/2
f 54/2/2 52/2/2 56/2/2
f 55/5/2 54/5/2 56/5/2
f 55/2/2 56/2/2 57/2/2
f 56/2/2 52/2/2 58/2/2
f 57/2/2 56/2/2 58/2/2
f 59/3/2 60/3/2 61/3/2
f 61/3/2 60/3/2 62/3/2
f 61/5/2 62/5/2 63/5/2
f 62/3/2 60/3/2 64/3/2
f 63/5/2 62/5/2 64/5/2
f 63/3/2 64/3/2 65/3/2
f 64/3/2 60/3/2 66/3/2
f 65/3/2 64/3/2 66/3/2
f 67/4/2 68/4/2 69/4/2
f 69/4/2 68/4/2 70/4/2
f 69/5/2 70/5/2 71/5/2
f 70/4/2 68/4/2 72/4/2
f 71/5/2 70/5/2 72/5/2
f 71/4/2 72/4/2 73/4/2
f 72/4/2 68/4/2 74/4/2
f 73/4/2 72/4/2 74/4/2
f 75/6/2 76/6/2 77/6/2
f 77/6/2 76/6/2 78/6/2
f 81/6/3 80/6/3 79/6/3
f 82/6/3 80/6/3 81/6/3
f 83/6/3 81/6/3 79/6/3
f 84/6/3 80/6/3 82/6/3
f 85/6/3 83/6/3 79/6/3
f 85/6/3 84/6/3 83/6/3
f 86/6/3 80/6/3 84/6/3
f 86/6/3 84/6/3 85/6/3
f 91/1/3 88/1/3 87/1/3
f 92/5/3 89/5/3 88/5/3
f 92/1/3 88/1/3 91/1/3
f 93/1/3 90/1/3 89/1/3
f 93/5/3 89/5/3 92/5/3
f 94/1/3 90/1/3 93/1/3
f 99/2/3 96/2/3 95/2/3
f 100/5/3 97/5/3 96/5/3
f 100/2/3 96/2/3 99/2/3
f 101/2/3 98/2/3 97/2/3
f 101/5/3 97/5/3 100/5/3
f 102/2/3 98/2/3 101/2/3
f 107/3/3 104/3/3 103/3/3
f 108/5/3 105/5/3 104/5/3
f 108/3/3 104/3/3 107/3/3
f 109/3/3 106/3/3 105/3/3
f 109/5/3 105/5/3 108/5/3
f 110/3/3 106/3/3 109/3/3
f 115/4/3 112/4/3 111/4/3
f 116/5/3 113/5/3 112/5/3
f 116/4/3 112/4/3 115/4/3
f 117/4/3 114/4/3 113/4/3
f 117/5/3 113/5/3 116/5/3
f 118/4/3 114/4/3 117/4/3
f 119/1/4 120/1/4 121/1/4
f 121/1/4 120/1/4 122/1/4
f 123/2/4 124/2/4 125/2/4
f 125/2/4 124/2/4 126/2/4
f 127/3/4 128/3/4 129/3/4
f 129/3/4 128/3/4 130/3/4
f 131/4/4 132/4/4 133/4/4
f 133/4/4 132/4/4 134/4/4
f 135/6/4 136/6/4 137/6/4
f 137/6/4 136/6/4 138/6/4
f 135/6/4 137/6/4 139/6/4
f 138/6/4 136/6/4 140/6/4
f 135/6/4 139/6/4 141/6/4
f 139/6/4 140/6/4 141/6/4
f 140/6/4 136/6/4 142/6/4
f 141/6/4 140/6/4 142/6/4
f 145/6/5 144/6/5 143/6/5
f 146/6/5 144/6/5 145/6/5
f 149/6/5 148/6/5 147/6/5
f 150/6/5 148/6/5 149/6/5
f 151/6/6 152/6/6 153/6/6
f 153/6/6 152/6/6 154/6/6
f 154/6/6 152/6/6 155/6/6
f 155/6/6 152/6/6 156/6/6
f 156/6/6 152/6/6 157/6/6
f 157/6/6 152/6/6 158/6/6
f 158/6/6 152/6/6 159/6/6
f 159/6/6 152/6/6 160/6/6
f 154/6/6 155/6/6 162/6/6
f 162/6/6 155/6/6 163/6/6
f 156/6/6 157/6/6 164/6/6
f 164/6/6 157/6/6 165/6/6
f 158/6/6 159/6/6 166/6/6
f 166/6/6 159/6/6 167/6/6
f 160/6/6 152/6/6 168/6/6
f 166/6/6 167/6/6 169/6/6
f 167/6/6 168/6/6 169/6/6
f 162/6/6 163/6/6 169/6/6
f 164/6/6 165/6/6 169/6/6
f 165/6/6 166/6/6 169/6/6
f 161/6/6 162/6/6 169/6/6
f 163/6/6 164/6/6 169/6/6
f 168/6/6 152/6/6 170/6/6
f 169/6/6 168/6/6 170/6/6
f 171/1/6 172/1/6 179/1/6
f 179/1/6 172/1/6 180/1/6
f 173/2/6 174/2/6 181/2/6
f 181/2/6 174/2/6 182/2/6
f 175/3/6 176/3/6 183/3/6
f 183/3/6 176/3/6 184/3/6
f 177/4/6 178/4/6 185/4/6
f 185/4/6 178/4/6 186/4/6
f 187/6/6 188/6/6 189/6/6
f 189/6/6 188/6/6 190/6/6
