# MagicaVoxel @ Ephtracy

# group
o 

# material
mtllib Player0.mtl
usemtl palette

# normals
vn -1 0 0
vn 1 0 0
vn 0 0 1
vn 0 0 -1
vn 0 -1 0
vn 0 1 0

# texcoords
vt 0.974609 0.5
vt 0.978516 0.5
vt 0.982422 0.5
vt 0.986328 0.5

# verts
v 0.3 2 -0.3
v 0.3 2 -0.7
v 0.3 2.2 -0.3
v 0.3 2.2 -0.4
v 0.3 2.3 -0.3
v 0.3 2.3 -0.4
v 0.3 2.4 -0.3
v 0.3 2.4 -0.4
v 0.3 2.6 -0.3
v 0.3 2.6 -0.7
v 0.7 2 -0.3
v 0.7 2 -0.7
v 0.7 2.2 -0.3
v 0.7 2.2 -0.4
v 0.7 2.3 -0.3
v 0.7 2.3 -0.4
v 0.7 2.4 -0.3
v 0.7 2.4 -0.4
v 0.7 2.6 -0.3
v 0.7 2.6 -0.7
v 0.3 2 -0.3
v 0.3 2.2 -0.3
v 0.3 2.3 -0.3
v 0.3 2.4 -0.3
v 0.3 2.6 -0.3
v 0.4 2.1 -0.3
v 0.4 2.2 -0.3
v 0.4 2.3 -0.3
v 0.4 2.4 -0.3
v 0.6 2.1 -0.3
v 0.6 2.2 -0.3
v 0.6 2.3 -0.3
v 0.6 2.4 -0.3
v 0.7 2 -0.3
v 0.7 2.2 -0.3
v 0.7 2.3 -0.3
v 0.7 2.4 -0.3
v 0.7 2.6 -0.3
v 0.3 2 -0.7
v 0.3 2.6 -0.7
v 0.7 2 -0.7
v 0.7 2.6 -0.7
v 0.3 2 -0.3
v 0.7 2 -0.3
v 0.3 2 -0.7
v 0.7 2 -0.7
v 0.3 2.6 -0.3
v 0.7 2.6 -0.3
v 0.3 2.6 -0.7
v 0.7 2.6 -0.7

# faces
f 3/1/1 2/1/1 1/1/1
f 4/1/1 2/1/1 3/1/1
f 5/3/1 4/3/1 3/3/1
f 6/1/1 2/1/1 4/1/1
f 6/3/1 4/3/1 5/3/1
f 7/2/1 6/2/1 5/2/1
f 8/1/1 2/1/1 6/1/1
f 8/2/1 6/2/1 7/2/1
f 9/1/1 8/1/1 7/1/1
f 10/1/1 2/1/1 8/1/1
f 10/1/1 8/1/1 9/1/1
f 11/1/2 12/1/2 13/1/2
f 13/1/2 12/1/2 14/1/2
f 13/3/2 14/3/2 15/3/2
f 14/1/2 12/1/2 16/1/2
f 15/3/2 14/3/2 16/3/2
f 15/2/2 16/2/2 17/2/2
f 16/1/2 12/1/2 18/1/2
f 17/2/2 16/2/2 18/2/2
f 17/1/2 18/1/2 19/1/2
f 18/1/2 12/1/2 20/1/2
f 19/1/2 18/1/2 20/1/2
f 26/1/3 22/1/3 21/1/3
f 27/3/3 23/3/3 22/3/3
f 27/1/3 22/1/3 26/1/3
f 28/2/3 24/2/3 23/2/3
f 28/3/3 23/3/3 27/3/3
f 29/1/3 25/1/3 24/1/3
f 29/2/3 24/2/3 28/2/3
f 30/1/3 26/1/3 21/1/3
f 30/4/3 27/4/3 26/4/3
f 31/1/3 28/1/3 27/1/3
f 31/4/3 27/4/3 30/4/3
f 31/1/3 29/1/3 28/1/3
f 32/1/3 29/1/3 31/1/3
f 33/1/3 25/1/3 29/1/3
f 33/1/3 29/1/3 32/1/3
f 34/1/3 30/1/3 21/1/3
f 34/1/3 31/1/3 30/1/3
f 35/3/3 32/3/3 31/3/3
f 35/1/3 31/1/3 34/1/3
f 36/2/3 33/2/3 32/2/3
f 36/3/3 32/3/3 35/3/3
f 37/1/3 25/1/3 33/1/3
f 37/2/3 33/2/3 36/2/3
f 38/1/3 25/1/3 37/1/3
f 39/1/4 40/1/4 41/1/4
f 41/1/4 40/1/4 42/1/4
f 45/1/5 44/1/5 43/1/5
f 46/1/5 44/1/5 45/1/5
f 47/1/6 48/1/6 49/1/6
f 49/1/6 48/1/6 50/1/6
